# xmcd
#
# Track frame offsets:
#  150
#  14345
#  28939
#  42035
#  56705
#  69561
#  84147
#  98404
#  110981
#  125232
#  139322
#  151983
#  165103
#  176387
#  192543
#  203730
#  216835
#  231892
#  246139
#  260772
#  275395
#  288871
#  304166
#  318216
#
# Disc length: 4421 seconds
#
# Revision: 2
# Processed by: cddbd v1.5.1PL2 Copyright (c) Steve Scherf et al.
# Submitted via: Collectorz.com_Music_Collector 6.11
#
DISCID=56114318
DTITLE=Frank Sinatra - I'll Be Seeing You [CD 2)
DYEAR=1900
DGENRE=Blues
TTITLE0=Love Me As I Am
TTITLE1=Moments In The Moonlight
TTITLE2=Yours Is My Heart Alone
TTITLE3=Too Romantic
TTITLE4=Head On My Pillow
TTITLE5=It's Allways You
TTITLE6=I'll Never Smile Again
TTITLE7=Be Careful, It's My Heart
TTITLE8=I Could Make You Care
TTITLE9=You're Lonely And I'm Lonely
TTITLE10=Where Do You Keep Your Heart?
TTITLE11=Two In Love
TTITLE12=Last Call For Love
TTITLE13=The One I Love Belongs To Somebody Else
TTITLE14=It's A Lovely Day Tomorrow
TTITLE15=Oh, What A Beautiful Morning
TTITLE16=Polka Dots And Moonbeams
TTITLE17=Looking For Yesterday
TTITLE18=This Is The Beginning Of The End
TTITLE19=Everything Happens To Me
TTITLE20=A Sinnner Kissed An Angel
TTITLE21=Say It
TTITLE22=The Call Of The Canyon
TTITLE23=Whispering
EXTD=
EXTT0=
EXTT1=
EXTT2=
EXTT3=
EXTT4=
EXTT5=
EXTT6=
EXTT7=
EXTT8=
EXTT9=
EXTT10=
EXTT11=
EXTT12=
EXTT13=
EXTT14=
EXTT15=
EXTT16=
EXTT17=
EXTT18=
EXTT19=
EXTT20=
EXTT21=
EXTT22=
EXTT23=
PLAYORDER=
